<?xml version="1.0" encoding="utf-8"?>
<!-- Generator: Adobe Illustrator 12.0.0, SVG Export Plug-In . SVG Version: 6.00 Build 51448)  -->
<!DOCTYPE svg PUBLIC "-//W3C//DTD SVG 1.1//EN" "http://www.w3.org/Graphics/SVG/1.1/DTD/svg11.dtd" [
	<!ENTITY ns_svg "http://www.w3.org/2000/svg">
	<!ENTITY ns_xlink "http://www.w3.org/1999/xlink">
]>
<svg  version="1.1" id="Layer_2" xmlns="&ns_svg;" xmlns:xlink="&ns_xlink;" width="981.082" height="456.151"
	 viewBox="0 0 981.082 456.151" overflow="visible" enable-background="new 0 0 981.082 456.151" xml:space="preserve">
<path d="M382.23,207.542c-12.821,0-16.065-0.034-25.854,8.875c-12.042,10.958-22.708,31.375-33.417,42.514
	c-2.299,2.392-4.875,4.695-13.542,4.695c-10.308,0-9.8-3.361-9.8-5.973s3.897-45.424,3.897-45.424s0.52-6.343-4.345-4.515
	c-5.752,2.161-15.418,5.161-27.56,1.596c0,0-2.726-0.512-5.793,3.152c-3.066,3.664-17.481,20.997-17.481,20.997
	s-2.209,1.833-2.278,4.686c0,0,0,8.281,0,10.37s0.074,4.964,5.259,4.964s5.515-2.289,8.667-2.301
	c3.081-0.012,3.923,2.711,5.581,5.738c6.5,11.875,18.919,23.572,49.322,22.799c13.366-0.34,25.578-14.118,25.578-14.118
	s23.237-31.307,25.687-33.757s7.133-5.963,12.16-5.963c5.566,0,5.197,2.982,5.197,2.982s-5.505,42.35-5.755,44.766
	s-0.123,6.091,4.563,6.091c4.686,0,21.25,0,23.875,0s6.188-0.237,8.752-4.515c3.112-5.189,23.601-50.762,38.935-49.91
	c0,0,4.296,0.927,4.296,6.038c0,5.111-7.385,40.715-7.734,42.087c-0.938,3.688,0.775,6.125,5.375,6.125
	c4.601,0,25.801,0.063,26.688,0.063c2.183,0,3.379,0.699,5.446-4.402c1.846-4.556,18.929-46.66,32.554-48.91
	c0,0,2.168,0.706,1.63,3.76c-0.88,4.99-2.533,9.731-2.255,15.99c0.436,9.787,7.425,19.048,18.5,24.5
	c11.075,5.453,18.498,8.625,28.125,8.625c9.626,0,20.315-4.093,27.125-12.375c6.675-8.118,11.125-12.5,14.25-9.75
	c4.247,3.737,3.75,4,8.875,8.375c6.17,5.268,18.25,14.375,41.018,14.215c21.858-0.153,33.004-7.014,35.232-8.09
	c3.625-1.75,9.008-5.512,11.75-7.125c2.125-1.25,5.023-1.211,9.875-0.5c13.173,1.931,19.018-1.518,23.134-4.134
	s4.554-4.574,9.324-4.574c4.771,0,4.418,3.208,9.417,8.208s19,15.5,41.573,15.726c0,0,10.241,0.91,22.677-7.268
	c12.437-8.179,13.364-3.769,17.667-0.833c9.708,6.625,16.777,8.875,30.833,8.875s30.22-12.979,38.227-27.887
	c8.009-14.908,12.366-24.214,19.606-17.655c7.241,6.56,19.5,16.977,19.5,21.833c0,4.855-4.333,4.5-4.333,4.5
	s-3.641,0.009-8.667-4.167c-5.026-4.174-5.167-4.833-9-4.833s-10.667,4.833-10.333,13c0.273,6.682,6.58,15.178,37.589,15.178
	c26.744,0,29.117-12.078,29.241-21.211c0.17-12.467-15.33-21.634-37.83-35.634c-1.175-0.824-4.146-3.678-1.334-7
	c2.812-3.322-0.674-8.37-4.166-10.5s-9.711-4.833-15.333-4.833c-5.623,0-11.334,2.5-13,12.167
	c-0.063,0.368-5.5,10.667-15.167,25.167c-9.475,14.211-15,25.615-25.959,25.615c-0.875,0-7.125-0.198-7.07-10.223
	c0.058-10.563,3.342-40.969,3.342-40.969s0.512-4.771-4.429-4.771s-32.201-0.085-32.201-0.085s-4.674-0.084-4.771,4.515
	c-0.411,19.417-1.293,42.987-20.286,50.042c-4.375,1.625-14.4,1.958-15.625-6.75c-1.125-8,3.627-43.203,3.627-43.203
	s0.597-4.771-4.771-4.771s-25.773,0.085-27.356,0.085s-3.738,0.085-6.294,4.43c-2.555,4.344-24.237,34.449-33.608,34.449
	c-4.098,0-6.241,1.175-5.723-4.866c0.458-5.333-0.208-9.833-4.158-14.046c-8.531-9.099-17.976-20.019-33.31-20.019
	s-13.971,9.625-13.971,9.625s0.255,5.027,6.389,11.331s12.925,13.733,16.187,18.146c0.738,1.088,5.706,7.326-3.92,12.267
	c-9.625,4.94-17.89,3.919-19.167,3.919c-1.278,0-16.271,1.277-16.271-11.841c0-13.12,0.637-110.612,0.637-110.612
	s0.767-4.6-4.089-4.6s-32.456,0.17-32.456,0.17s-4.431-0.597-4.431,4.344c0,4.942,0.518,19.316-0.041,38.542
	c-0.53,18.256-1.024,49.523-20.444,73.772c0,0-10.056,10.366-16.016,10.224c-9.314-0.223-8.814-6.815-8.814-7.838
	s-0.341-1.363,2.045-12.097c2.384-10.734-1.494-16.486-3.749-18.741S542,207.292,520.625,207.542c0,0-9.041-1.834-30.875,19.667
	c0,0-10.5-18.5-40.5-18.5c0,0-13.417-1.75-32.5,17.333C416.75,226.042,397.043,207.542,382.23,207.542z"/>
<ellipse transform="matrix(0.9848 0.1737 -0.1737 0.9848 37.1246 -45.7856)" cx="280.147" cy="189.209" rx="21.471" ry="13.594"/>
<path d="M199.455,456.151c-2.7,0-2.746-2.512-2.746-2.512l-7.83-274.765c0-11.58-1.226-27.908-7.427-34.949
	c-5.62-6.382-14.696-10.041-23.957-10.441c-0.117-0.005-1.699-0.058-1.699-1.059c0-1.001,1.119-1.031,1.677-1.046
	c11.641-0.323,23.097-3.993,30.159-10.455c6.789-6.213,8.772-19.657,9.145-30.689c0.014-0.422,0.188-1.299,1.234-1.299
	c1.047,0,1.126,0.876,1.142,1.321c0.375,11.028,2.36,24.458,9.144,30.667c7.062,6.462,18.519,10.132,30.16,10.455
	c0.559,0.015,1.676-0.019,1.676,1.024s-1.583,1.075-1.698,1.08c-9.261,0.4-18.337,4.059-23.958,10.441
	c-6.201,7.041-7.427,23.369-7.427,34.949l-4.757,274.764C202.293,453.638,202.271,456.151,199.455,456.151z"/>
<path d="M40.679,0c2.699,0,2.746,2.512,2.746,2.512l7.829,274.542c0,11.58,1.226,27.909,7.427,34.949
	c5.621,6.383,14.696,10.041,23.958,10.442c0.115,0.004,1.698,0.058,1.698,1.058c0,1.002-1.118,1.03-1.677,1.047
	c-11.64,0.322-23.097,3.991-30.159,10.454c-6.789,6.214-8.772,19.658-9.145,30.689c-0.014,0.424-0.188,1.299-1.235,1.299
	c-1.046,0-1.126-0.875-1.142-1.32c-0.374-11.028-2.36-24.459-9.145-30.668c-7.062-6.463-18.518-10.132-30.159-10.454
	C1.118,324.533,0,324.567,0,323.525c0-1.045,1.583-1.076,1.699-1.08c9.26-0.401,18.337-4.06,23.958-10.442
	c6.2-7.04,7.426-23.369,7.426-34.949L37.84,2.513C37.84,2.513,37.863,0,40.679,0z"/>
<path d="M46.2,85.231c0,0-0.636,5.66-0.136,13.478c0.658,10.278,3.279,24.284,11.892,34.058
	c13.154,14.928,125.568,135.45,125.568,135.45s1.874,1.867,3.439,1.867c1.342,0,2.112-0.308,2.523-2.037
	c0.99-4.164,0.682-32.372,1.193-45.321c0.511-12.949,8.178-9.542,8.178-9.542l-1.705,83.997l-0.681,107.677l-1.192,0.469
	c-1.151-18.98-1.035-18.635-3.749-60.015c-1.022-15.59-4.473-29.519-21.979-48.303c-15.648-16.789-113.36-119.482-113.36-119.482
	s-1.693-1.797-3.344-1.797c-1.64,0-2.151,0.817-2.534,1.797c-1.592,4.066-0.622,45.624-0.622,59.424c0,13.8-7.923-0.511-7.923-0.511
	l0.256-144.395L46.2,85.231z"/>
<path d="M250.449,327.292c0-6.775,7.409-10.164,22.498-11.52c14.759-1.325,54.075-7.59,97.173,13.417
	c29.835,14.543,37.948,32.527,8.945,49.649c-17.944,10.593-38.201,13.128-46.351,17.572c-3.727,2.033-3.975,1.933-3.975,3.118
	c0,0.451,0.497,0.678,2.213,0.678c13.09,0,20.494,13.469,30.697,17.55c7.115,2.847,14.33-0.187,18.861-3.501
	c6.541-4.786,12.369-8.394,15.812-10.753c4.021-2.755,5.602-2.213,8.493,0.271c3.036,2.607,6.912,6.279,9.532,9.532
	c1.586,1.97,1.349,2.974-0.677,5.241c-0.235,0.264-1.06,1.229-1.355,1.491c-6.505,5.782-20.239,22.046-47.344,19.516
	c-19.922-0.452-29.717-5.121-44.453-14.141c-15.721-9.622-26.428-6.234-36.593,0.813s-16.579,22.001-26.699,12.604
	c-10.12-9.396-16.263-15.585-4.608-29.951c10.762-13.265,30.965-21.9,49.106-29.319c24.079-9.848,63.723-29.596,36.818-42.51
	c-20.329-9.759-35.586-6.416-53.792-1.176C258.607,343.4,250.449,334.07,250.449,327.292z"/>
<g>
	<path d="M473.127,370.858c0.654-3.212,1.588-6.435,2.821-9.629c10.004-25.912,35.706-40.127,57.413-31.749
		c15.92,6.146,25.254,22.743,25.157,41.378h34.426c-4.732-31.15-40.643-55.373-84.26-55.373c-43.618,0-79.527,24.223-84.26,55.373
		H473.127z"/>
	<path d="M556.692,384.858c-0.577,2.242-1.282,4.484-2.143,6.712c-10.002,25.914-35.705,40.127-57.411,31.749
		c-15.085-5.823-24.259-21.029-25.1-38.461h-47.614c4.732,31.151,40.642,55.373,84.26,55.373s79.527-24.222,84.261-55.373H556.692z"
		/>
</g>
<g>
	<path d="M748.358,384.858c-0.576,2.243-1.281,4.485-2.142,6.714c-10.004,25.912-35.706,40.125-57.413,31.748
		c-15.085-5.824-24.259-21.03-25.099-38.462H616.09c4.732,31.15,40.642,55.373,84.26,55.373s79.528-24.223,84.261-55.373H748.358z"
		/>
	<path d="M664.794,370.858c0.654-3.211,1.588-6.434,2.821-9.628c10.002-25.913,35.705-40.128,57.411-31.749
		c15.921,6.146,25.254,22.742,25.158,41.377h34.425c-4.733-31.15-40.643-55.373-84.26-55.373s-79.526,24.223-84.259,55.373H664.794z
		"/>
</g>
<g>
	<path d="M859.723,370.858c0.654-3.211,1.588-6.434,2.821-9.628c10.002-25.913,35.705-40.128,57.411-31.749
		c15.921,6.146,25.254,22.742,25.158,41.377h34.425c-4.733-31.15-40.643-55.373-84.26-55.373s-79.526,24.223-84.259,55.373H859.723z
		"/>
	<path d="M943.287,384.858c-0.576,2.242-1.281,4.484-2.142,6.713c-10.004,25.913-35.707,40.126-57.413,31.749
		c-15.085-5.824-24.259-21.03-25.099-38.462h-47.614c4.732,31.15,40.642,55.373,84.26,55.373s79.528-24.223,84.261-55.373H943.287z"
		/>
</g>
</svg>
